<svg width="512" height="840" viewBox="0 0 512 840" fill="none" xmlns="http://www.w3.org/2000/svg">
<path fill-rule="evenodd" clip-rule="evenodd" d="M269.569 121.737H21.8672V32.7314H269.569C403.46 32.7314 512.001 141.138 512.001 274.865C512.001 410.107 402.23 519.743 266.821 519.743H177.398V430.738H266.821C353.013 430.738 422.885 360.951 422.885 274.865C422.885 190.295 354.243 121.737 269.569 121.737Z" fill="#068FCF"/>
<path d="M176.558 515.545H263.991V658.29H176.558V515.545Z" fill="#068FCF"/>
<path d="M21.8584 0H107.611V839.675H21.8584V0Z" fill="black"/>
<path d="M0 431.593H68.9382V517.24H0V431.593Z" fill="black"/>
<path fill-rule="evenodd" clip-rule="evenodd" d="M404.525 504.669C412.427 517.796 416.971 533.168 416.971 549.6V576.47C416.971 659.943 349.219 727.611 265.643 727.611H189.979V727.601H107.59V809.9H265.643C394.722 809.9 499.36 705.39 499.36 576.47V549.6C499.36 513.135 487.839 479.357 468.233 451.7C453.374 469.362 430.395 491.585 404.525 504.669Z" fill="black"/>
<rect x="178.213" width="85.7523" height="33.587" fill="black"/>
<rect x="178.213" y="809.448" width="85.7523" height="30.2283" fill="#068FCF"/>
</svg>
